<svg width="991" height="260" viewBox="0 0 991 260" fill="none" xmlns="http://www.w3.org/2000/svg">
<path fill-rule="evenodd" clip-rule="evenodd" d="M823.413 242.825C761.509 216.416 732.734 144.825 759.142 82.9216C785.55 21.0177 857.142 -7.75728 919.045 18.6512C999.381 56.1193 941.881 135.704 888.427 106.459C849.973 85.4206 812.164 104.927 799.325 130.819C786.485 156.711 790.477 191.568 827.9 216C865.322 240.432 928.4 239.5 963.143 205.664C963.872 204.933 965.087 205.022 965.687 205.862C966.117 206.463 966.095 207.279 965.627 207.852C932.185 248.829 874.5 264.619 823.413 242.825Z" fill="#483B50"/>
<path d="M933.702 140.815C971.548 128.262 979.52 97.6784 976.87 81.364C976.688 79.9132 978.776 79.4146 979.523 81.372C982.969 90.4017 987.127 127.338 945.55 150.53C903.974 173.722 854.651 158.684 840.245 147.777C835.09 143.874 832.979 137.066 836.745 132.219C840.512 127.372 847.307 125.629 852.767 129.353C869.223 140.578 895.856 153.368 933.702 140.815Z" fill="#483B50"/>
<path d="M928.579 186.492C949.4 179.584 967.943 166 980.734 143.121C981.951 140.944 984.989 142.113 984.161 144.382C975.9 167 960.977 186.823 934.934 199.146C908.892 211.469 878.849 213.39 843.284 197.755C837.427 195.18 834.305 188.472 837.21 183.152C840.116 177.833 847.214 175.516 853.588 178.894C878.955 192.336 907.759 193.4 928.579 186.492Z" fill="#483B50"/>
<path d="M49 235.8C38.36 235.8 29.2133 235.333 21.56 234.4C14.0933 233.653 6.90667 232.253 0 230.2V39.7999C6.90667 37.7466 14.0933 36.3466 21.56 35.5999C29.2133 34.6666 38.36 34.2 49 34.2C69.5333 34.2 84.9333 38.7733 95.2 47.92C105.467 56.88 110.6 69.5733 110.6 86C110.6 94.5866 108.173 102.707 103.32 110.36C98.6533 117.827 92.2133 123.52 84 127.44V128.56C95.2 132.48 103.787 138.92 109.76 147.88C115.92 156.653 119 167.293 119 179.8C119 198.467 113.493 212.467 102.48 221.8C91.4667 231.133 73.64 235.8 49 235.8ZM46.2 119.6C55.3467 119.6 62.5333 116.893 67.76 111.48C72.9867 105.88 75.6 97.8533 75.6 87.4C75.6 76.9466 72.9867 69.0133 67.76 63.6C62.5333 58 55.3467 55.1999 46.2 55.1999H33.6V119.6H46.2ZM49 214.8C60.9467 214.8 69.72 211.907 75.32 206.12C81.1067 200.147 84 190.907 84 178.4C84 165.147 81.1067 155.533 75.32 149.56C69.72 143.587 60.9467 140.6 49 140.6H33.6V214.8H49Z" fill="#483B50"/>
<path d="M190.477 233V36.9999H224.077V233H190.477Z" fill="#483B50"/>
<path d="M354.211 235.8C343.571 235.8 334.424 235.333 326.771 234.4C319.304 233.653 312.118 232.253 305.211 230.2V39.7999C312.118 37.7466 319.304 36.3466 326.771 35.5999C334.424 34.6666 343.571 34.2 354.211 34.2C374.744 34.2 390.144 38.7733 400.411 47.92C410.678 56.88 415.811 69.5733 415.811 86C415.811 94.5866 413.384 102.707 408.531 110.36C403.864 117.827 397.424 123.52 389.211 127.44V128.56C400.411 132.48 408.998 138.92 414.971 147.88C421.131 156.653 424.211 167.293 424.211 179.8C424.211 198.467 418.704 212.467 407.691 221.8C396.678 231.133 378.851 235.8 354.211 235.8ZM351.411 119.6C360.558 119.6 367.744 116.893 372.971 111.48C378.198 105.88 380.811 97.8533 380.811 87.4C380.811 76.9466 378.198 69.0133 372.971 63.6C367.744 58 360.558 55.1999 351.411 55.1999H338.811V119.6H351.411ZM354.211 214.8C366.158 214.8 374.931 211.907 380.531 206.12C386.318 200.147 389.211 190.907 389.211 178.4C389.211 165.147 386.318 155.533 380.531 149.56C374.931 143.587 366.158 140.6 354.211 140.6H338.811V214.8H354.211Z" fill="#483B50"/>
<path d="M495.687 233V36.9999H529.288V210.6H597.888V233H495.687Z" fill="#483B50"/>
<path d="M662.375 233V36.9999H695.975V233H662.375Z" fill="#483B50"/>
</svg>
